<svg xmlns="http://www.w3.org/2000/svg" viewBox="0 0 512 512" width="512" height="512">
  <!-- Background -->
  <rect width="512" height="512" rx="108" ry="108" fill="#0a0a0a"/>
  <!-- Logo centered and scaled -->
  <g fill="#ffffff" transform="translate(256,256) scale(2) translate(-100,-100)">
    <!-- Level 1: 1 dot -->
    <circle cx="100" cy="100" r="3"/>
    <!-- Level 2: 6 dots -->
    <circle cx="116" cy="100" r="3"/>
    <circle cx="108" cy="113.86" r="3"/>
    <circle cx="92" cy="113.86" r="3"/>
    <circle cx="84" cy="100" r="3"/>
    <circle cx="92" cy="86.14" r="3"/>
    <circle cx="108" cy="86.14" r="3"/>
    <!-- Level 3: 12 dots -->
    <circle cx="132" cy="100" r="3"/>
    <circle cx="127.71" cy="116" r="3"/>
    <circle cx="116" cy="127.71" r="3"/>
    <circle cx="100" cy="132" r="3"/>
    <circle cx="84" cy="127.71" r="3"/>
    <circle cx="72.29" cy="116" r="3"/>
    <circle cx="68" cy="100" r="3"/>
    <circle cx="72.29" cy="84" r="3"/>
    <circle cx="84" cy="72.29" r="3"/>
    <circle cx="100" cy="68" r="3"/>
    <circle cx="116" cy="72.29" r="3"/>
    <circle cx="127.71" cy="84" r="3"/>
    <!-- Level 4: 18 dots -->
    <circle cx="148" cy="100" r="3"/>
    <circle cx="145.11" cy="116.42" r="3"/>
    <circle cx="136.77" cy="130.85" r="3"/>
    <circle cx="124" cy="141.57" r="3"/>
    <circle cx="108.34" cy="147.27" r="3"/>
    <circle cx="91.66" cy="147.27" r="3"/>
    <circle cx="76" cy="141.57" r="3"/>
    <circle cx="63.23" cy="130.85" r="3"/>
    <circle cx="54.89" cy="116.42" r="3"/>
    <circle cx="52" cy="100" r="3"/>
    <circle cx="54.89" cy="83.58" r="3"/>
    <circle cx="63.23" cy="69.15" r="3"/>
    <circle cx="76" cy="58.43" r="3"/>
    <circle cx="91.66" cy="52.73" r="3"/>
    <circle cx="108.34" cy="52.73" r="3"/>
    <circle cx="124" cy="58.43" r="3"/>
    <circle cx="136.77" cy="69.15" r="3"/>
    <circle cx="145.11" cy="83.58" r="3"/>
    <!-- Level 5: 24 dots -->
    <circle cx="164" cy="100" r="3"/>
    <circle cx="161.82" cy="116.56" r="3"/>
    <circle cx="155.43" cy="132" r="3"/>
    <circle cx="145.25" cy="145.25" r="3"/>
    <circle cx="132" cy="155.43" r="3"/>
    <circle cx="116.56" cy="161.82" r="3"/>
    <circle cx="100" cy="164" r="3"/>
    <circle cx="83.44" cy="161.82" r="3"/>
    <circle cx="68" cy="155.43" r="3"/>
    <circle cx="54.75" cy="145.25" r="3"/>
    <circle cx="44.57" cy="132" r="3"/>
    <circle cx="38.18" cy="116.56" r="3"/>
    <circle cx="36" cy="100" r="3"/>
    <circle cx="38.18" cy="83.44" r="3"/>
    <circle cx="44.57" cy="68" r="3"/>
    <circle cx="54.75" cy="54.75" r="3"/>
    <circle cx="68" cy="44.57" r="3"/>
    <circle cx="83.44" cy="38.18" r="3"/>
    <circle cx="100" cy="36" r="3"/>
    <circle cx="116.56" cy="38.18" r="3"/>
    <circle cx="132" cy="44.57" r="3"/>
    <circle cx="145.25" cy="54.75" r="3"/>
    <circle cx="155.43" cy="68" r="3"/>
    <circle cx="161.82" cy="83.44" r="3"/>
    <!-- Level 6: 30 dots -->
    <circle cx="180" cy="100" r="3"/>
    <circle cx="178.25" cy="116.63" r="3"/>
    <circle cx="173.08" cy="132.54" r="3"/>
    <circle cx="164.72" cy="147.02" r="3"/>
    <circle cx="153.53" cy="159.45" r="3"/>
    <circle cx="140" cy="169.28" r="3"/>
    <circle cx="124.72" cy="176.08" r="3"/>
    <circle cx="108.36" cy="179.56" r="3"/>
    <circle cx="91.64" cy="179.56" r="3"/>
    <circle cx="75.28" cy="176.08" r="3"/>
    <circle cx="60" cy="169.28" r="3"/>
    <circle cx="46.47" cy="159.45" r="3"/>
    <circle cx="35.28" cy="147.02" r="3"/>
    <circle cx="26.92" cy="132.54" r="3"/>
    <circle cx="21.75" cy="116.63" r="3"/>
    <circle cx="20" cy="100" r="3"/>
    <circle cx="21.75" cy="83.37" r="3"/>
    <circle cx="26.92" cy="67.46" r="3"/>
    <circle cx="35.28" cy="52.98" r="3"/>
    <circle cx="46.47" cy="40.55" r="3"/>
    <circle cx="60" cy="30.72" r="3"/>
    <circle cx="75.28" cy="23.92" r="3"/>
    <circle cx="91.64" cy="20.44" r="3"/>
    <circle cx="108.36" cy="20.44" r="3"/>
    <circle cx="124.72" cy="23.92" r="3"/>
    <circle cx="140" cy="30.72" r="3"/>
    <circle cx="153.53" cy="40.55" r="3"/>
    <circle cx="164.72" cy="52.98" r="3"/>
    <circle cx="173.08" cy="67.46" r="3"/>
    <circle cx="178.25" cy="83.37" r="3"/>
  </g>
</svg>
